<?xml version="1.0" standalone="no"?>
<!DOCTYPE svg PUBLIC "-//W3C//DTD SVG 20010904//EN"
 "http://www.w3.org/TR/2001/REC-SVG-20010904/DTD/svg10.dtd">
<svg version="1.0" xmlns="http://www.w3.org/2000/svg"
 width="512.000000pt" height="512.000000pt" viewBox="0 0 512.000000 512.000000"
 preserveAspectRatio="xMidYMid meet" fill="current">

<g transform="translate(0.000000,512.000000) scale(0.100000,-0.100000)" stroke="none">
<path d="M1190 5113 c-218 -36 -399 -212 -446 -433 -29 -138 1 -226 91 -270
114 -55 238 14 260 145 14 87 18 98 47 131 61 69 -87 64 1784 64 l1696 0 40
-22 c22 -13 51 -41 64 -64 l24 -41 0 -1697 c0 -1462 -2 -1701 -14 -1725 -23
-44 -81 -89 -123 -96 -85 -14 -99 -18 -133 -37 -81 -44 -112 -147 -70 -233 44
-90 132 -120 270 -91 100 21 182 63 257 130 71 65 116 131 152 224 l26 67 3
1720 c2 1217 0 1739 -8 1785 -36 210 -225 401 -434 439 -41 8 -585 11 -1760
10 -936 -1 -1712 -4 -1726 -6z"/>
<path d="M480 4200 c-177 -22 -342 -137 -419 -295 -64 -129 -61 -31 -61 -1796
0 -1103 3 -1624 11 -1665 37 -206 227 -396 433 -433 41 -8 562 -11 1665 -11
1401 0 1614 2 1670 15 196 47 347 191 408 390 17 57 18 136 18 1700 l0 1640
-23 70 c-31 93 -64 148 -130 217 -68 71 -130 112 -224 146 l-73 27 -1605 1
c-883 1 -1634 -2 -1670 -6z m3258 -381 c26 -13 54 -38 70 -62 l27 -41 3 -1590
c2 -1110 0 -1602 -8 -1628 -14 -48 -55 -97 -97 -114 -27 -12 -304 -14 -1634
-14 l-1602 0 -41 24 c-23 13 -51 42 -64 64 l-22 40 0 1600 c0 1110 3 1609 11
1629 15 40 48 73 94 94 38 18 106 19 1629 19 l1590 0 44 -21z"/>
</g>
</svg>
